# xmcd
#
# Track frame offsets: 
#        150
#        4601
#        20806
#        33761
#        41265
#        52661
#        68208
#        81265
#        85422
#        98440
#        111165
#        124852
#        143557
#        155121
#
# Disc length: 2127 seconds
#
# Revision: 0
# Processed by: cddbd v1.5.1PL2 Copyright (c) Steve Scherf et al.
# Submitted via: ExactAudioCopy v0.95a4
#
DISCID=a6084d0e
DTITLE=Hot Fingerpickin' Slide Guitar - Johnny Johnson
DYEAR=2003
DGENRE=Blues
TTITLE0=Slide In
TTITLE1=Mean Ol' Frisco
TTITLE2=House Of The Rising Sun
TTITLE3=If Your Mama Don't Love You
TTITLE4=Ain't Nobody's Dirty Business
TTITLE5=Roll Me
TTITLE6=Baby Please Don't Go
TTITLE7=Ribs N' Wings
TTITLE8=You My Medicine
TTITLE9=Poor Boy
TTITLE10=Stealin'
TTITLE11=Fishin' Blues
TTITLE12=Love You In The Mornin'
TTITLE13=Slide Out
EXTD=
EXTT0=
EXTT1=
EXTT2=
EXTT3=
EXTT4=
EXTT5=
EXTT6=
EXTT7=
EXTT8=
EXTT9=
EXTT10=
EXTT11=
EXTT12=
EXTT13=
PLAYORDER=
